<svg width="24" height="24" viewBox="0 0 24 24" fill="none" xmlns="http://www.w3.org/2000/svg">
<path fill-rule="evenodd" clip-rule="evenodd" d="M3.75 1.56738C3.55109 1.56738 3.36032 1.6464 3.21967 1.78705C3.07902 1.92771 3 2.11847 3 2.31738V18.6824C3 18.8813 3.07902 19.0721 3.21967 19.2127C3.36032 19.3534 3.55109 19.4324 3.75 19.4324H17.25C17.4489 19.4324 17.6397 19.3534 17.7803 19.2127C17.921 19.0721 18 18.8813 18 18.6824V8.04588C18.0002 7.94518 17.9801 7.84546 17.9409 7.75269C17.9018 7.65991 17.8443 7.57597 17.772 7.50588L11.8665 1.78188C11.7268 1.6457 11.5396 1.56929 11.3445 1.56888L3.75 1.56738ZM15.399 7.29588L12.0945 4.09038V7.29588H15.399ZM9 8.24988H6V6.74988H9V8.24988ZM15 11.9999H6V10.4999H15V11.9999ZM6 15.7499H15V14.2499H6V15.7499Z" fill="#A3A3A3"/>
<path d="M19.5 11.25V21H6.75V22.5H20.25C20.4489 22.5 20.6397 22.421 20.7803 22.2803C20.921 22.1397 21 21.9489 21 21.75V11.25H19.5Z" fill="#A3A3A3"/>
</svg>
