<svg width="24" height="24" viewBox="0 0 24 24" fill="none" xmlns="http://www.w3.org/2000/svg">
<path d="M11.7656 1.59041C11.6498 1.63541 11.4862 1.70713 11.4023 1.75026C11.3184 1.79338 11.1633 1.91807 11.0573 2.02776C10.9514 2.13744 10.8319 2.29026 10.7925 2.3676C10.7527 2.44494 10.6866 2.61088 10.6453 2.73697L10.5703 2.96526C9.80719 3.13635 9.35391 3.26057 9.07031 3.35151C8.78672 3.44244 8.28047 3.6501 7.94531 3.81322C7.61016 3.97588 7.18828 4.20135 7.00781 4.31338C6.82734 4.42588 6.48984 4.65932 6.25781 4.83229C6.02578 5.00526 5.64844 5.32307 5.41875 5.53823C5.18953 5.75385 4.84266 6.11994 4.64859 6.35197C4.45453 6.58401 4.14937 6.9951 3.97078 7.26604C3.79219 7.53697 3.53531 7.97948 3.39984 8.25041C3.26437 8.52135 3.07453 8.94322 2.97844 9.18791C2.88234 9.4326 2.73328 9.90744 2.64797 10.2426C2.56219 10.5778 2.45719 11.1262 2.415 11.4613C2.36203 11.8771 2.34234 12.3215 2.35219 12.8601L2.36719 13.6495C2.56687 13.8243 2.67891 13.8754 2.74453 13.8754C2.81016 13.8754 2.91562 13.8224 2.97891 13.7582C3.09187 13.6429 3.09375 13.6279 3.09375 12.8324C3.09375 12.3876 3.11578 11.8448 3.14297 11.6254C3.17016 11.406 3.225 11.0685 3.26484 10.8754C3.30469 10.6818 3.38906 10.3448 3.45234 10.1254C3.51562 9.90604 3.66094 9.49494 3.77625 9.21135C3.89109 8.92776 4.11656 8.46651 4.27781 8.18666C4.43859 7.90635 4.72266 7.47416 4.90922 7.22573C5.09531 6.97729 5.45391 6.56526 5.70609 6.31026C5.95781 6.05479 6.35391 5.69947 6.58594 5.51994C6.81797 5.34041 7.19766 5.07604 7.42969 4.9326C7.66172 4.78916 8.05219 4.57776 8.29688 4.46338C8.54156 4.34854 8.985 4.17369 9.28125 4.07479C9.5775 3.97541 9.97312 3.86197 10.1602 3.8226C10.3472 3.78276 10.5262 3.74994 10.5586 3.74901C10.5909 3.74854 10.6697 3.85776 10.7344 3.99229C10.7986 4.12635 10.9519 4.33822 11.0742 4.46198C11.1966 4.58619 11.4183 4.74604 11.5664 4.81682C11.8078 4.93213 11.8875 4.94572 12.3281 4.94526C12.7734 4.94526 12.8438 4.9326 13.0664 4.81635C13.2019 4.74557 13.3809 4.62791 13.4648 4.55432C13.5487 4.48119 13.6847 4.3176 13.7672 4.19104C13.8497 4.06494 13.9523 3.82401 13.995 3.65666C14.0489 3.44479 14.063 3.26619 14.0423 3.07072C14.0255 2.91604 13.958 2.67322 13.8919 2.53166C13.8258 2.38963 13.7236 2.21057 13.6641 2.13322C13.605 2.05588 13.4752 1.93447 13.3758 1.86369C13.2764 1.79244 13.0528 1.68182 12.8789 1.6176C12.6572 1.53557 12.4748 1.50182 12.2695 1.5051C12.1083 1.50744 11.8814 1.54588 11.7656 1.59041ZM3.23438 15.5287C3.14437 15.562 2.97562 15.644 2.85937 15.711C2.74312 15.7781 2.56547 15.9253 2.46375 16.0378C2.36203 16.1503 2.22563 16.3584 2.16 16.5004C2.06109 16.7151 2.04094 16.829 2.04 17.1801C2.03906 17.556 2.055 17.6353 2.18391 17.9067C2.26406 18.074 2.42203 18.3042 2.53547 18.4181C2.64937 18.5315 2.86875 18.6839 3.02344 18.757C3.17812 18.8296 3.43125 18.9028 3.58594 18.9192C3.78 18.9398 3.96187 18.9253 4.17188 18.8723L4.47656 18.7949C4.76578 19.1418 4.96641 19.3664 5.10844 19.5178C5.25094 19.6696 5.56781 19.9617 5.8125 20.1674C6.05719 20.3728 6.47906 20.6887 6.75 20.8692C7.02094 21.0496 7.51641 21.3304 7.85156 21.4935C8.18672 21.6567 8.65078 21.8559 8.88281 21.937C9.11484 22.0176 9.50531 22.1334 9.75 22.1938C9.99469 22.2548 10.3533 22.3293 10.5469 22.3598C10.74 22.3903 10.9987 22.4343 11.1211 22.4578C11.2434 22.4812 11.7023 22.5004 12.1406 22.5004C12.6262 22.5004 13.1067 22.4728 13.3711 22.4301C13.6097 22.3912 13.9734 22.3251 14.1797 22.2834C14.3859 22.2417 14.7605 22.147 15.0117 22.0724C15.263 21.9984 15.727 21.8264 16.043 21.6895C16.3589 21.5531 16.8173 21.3238 17.0625 21.1799C17.3077 21.0365 17.5763 20.8631 17.6602 20.7956C17.782 20.6967 17.813 20.6371 17.8139 20.4965C17.8148 20.3868 17.7839 20.2912 17.7319 20.2424C17.6859 20.1993 17.5955 20.1492 17.5312 20.1313C17.4384 20.1056 17.3222 20.1548 16.9688 20.3704C16.7236 20.5195 16.3017 20.7463 16.0312 20.8738C15.7608 21.0018 15.2963 21.187 15 21.2849C14.7038 21.3834 14.25 21.5062 13.9922 21.5582C13.7344 21.6098 13.2914 21.6768 13.0078 21.7073C12.705 21.7396 12.2212 21.7514 11.8359 21.7354C11.475 21.7204 10.9369 21.666 10.6406 21.6145C10.3444 21.5629 9.91172 21.4664 9.67969 21.3993C9.44766 21.3328 9.11016 21.2231 8.92969 21.1556C8.74922 21.0881 8.39062 20.9282 8.13281 20.8003C7.875 20.6723 7.485 20.451 7.26562 20.309C7.04625 20.167 6.69844 19.9195 6.49219 19.7592C6.28594 19.5989 5.87906 19.2164 5.58844 18.9098C5.08594 18.3796 5.06344 18.3473 5.13328 18.2582C5.17313 18.2067 5.26359 18.0482 5.33344 17.9067C5.44641 17.6784 5.46094 17.5954 5.46094 17.1801C5.46094 16.7671 5.44594 16.6809 5.33531 16.4535C5.26406 16.3068 5.09719 16.0893 4.94859 15.9496C4.80516 15.8142 4.58719 15.6576 4.46484 15.6009C4.30078 15.5254 4.13109 15.4945 3.82031 15.4832C3.55453 15.4734 3.33797 15.4903 3.23438 15.5287ZM15.7959 3.81182C15.7261 3.88026 15.6886 3.96744 15.6942 4.04619C15.6989 4.11557 15.7242 4.21447 15.75 4.26604C15.7758 4.3176 15.9497 4.43244 16.1367 4.52104C16.3238 4.60963 16.6556 4.79151 16.875 4.9251C17.0939 5.05916 17.4422 5.29729 17.6484 5.45432C17.8547 5.61135 18.2105 5.91979 18.4392 6.13963C18.668 6.35948 19.0167 6.73963 19.2141 6.98479C19.4114 7.22948 19.6973 7.63026 19.8492 7.87541C20.0016 8.1201 20.2303 8.54198 20.3578 8.81291C20.4858 9.08338 20.6709 9.54744 20.7689 9.84416C20.8673 10.1404 20.9902 10.5942 21.0422 10.852C21.0938 11.1098 21.1584 11.542 21.1856 11.8129C21.2128 12.0834 21.2348 12.4739 21.2348 12.6801C21.2348 12.8863 21.2128 13.2764 21.1856 13.5473C21.158 13.8178 21.0928 14.2504 21.0408 14.5082C20.9883 14.766 20.8725 15.1982 20.7834 15.4692L20.6213 15.9613C19.7606 15.9623 19.6828 15.9768 19.4531 16.094C19.3116 16.1662 19.0955 16.3242 18.9731 16.4446C18.8508 16.5656 18.6928 16.7803 18.6216 16.9223C18.5048 17.1548 18.4922 17.2284 18.4922 17.6723C18.4922 18.1467 18.4983 18.1753 18.6562 18.4635C18.7463 18.6281 18.915 18.8489 19.0312 18.9538C19.1475 19.0584 19.3584 19.1981 19.5 19.2637C19.7194 19.3654 19.8244 19.3832 20.2031 19.3832C20.5922 19.3832 20.6822 19.3668 20.918 19.2543C21.0661 19.1835 21.293 19.0199 21.4219 18.891C21.5508 18.7621 21.7144 18.5353 21.7852 18.3871C21.8977 18.1514 21.9141 18.0613 21.9141 17.6714C21.9141 17.264 21.9009 17.1984 21.7645 16.9214C21.682 16.7545 21.5452 16.5487 21.4598 16.4648L21.3047 16.312C21.6084 15.3862 21.7397 14.9067 21.7917 14.6488C21.8442 14.391 21.9117 13.927 21.9417 13.6176C21.9745 13.2862 21.9858 12.7762 21.9689 12.3754C21.9539 12.0014 21.8977 11.4426 21.8447 11.1332C21.7917 10.8238 21.683 10.3387 21.6038 10.0551C21.5241 9.77151 21.3689 9.31776 21.2592 9.04729C21.1491 8.77635 20.9794 8.39666 20.8823 8.20354C20.7848 8.00994 20.5945 7.67244 20.4591 7.45354C20.3236 7.23416 20.0667 6.86526 19.8877 6.63322C19.7091 6.40119 19.3852 6.02432 19.1681 5.7951C18.9511 5.56635 18.5836 5.22604 18.3516 5.03901C18.1195 4.85151 17.7502 4.58197 17.5312 4.43947C17.3119 4.29744 16.9219 4.07338 16.6641 3.9426C16.4039 3.81041 16.1311 3.70401 16.0509 3.70401C15.9628 3.70354 15.8634 3.74572 15.7959 3.81182ZM11.4933 7.20697C11.4338 7.22244 11.2547 7.27307 11.0948 7.31948C10.9355 7.36588 10.6781 7.48541 10.5234 7.58432C10.3687 7.68369 10.1156 7.90213 9.96094 8.06994C9.80344 8.24104 9.60328 8.52838 9.50578 8.72291C9.41016 8.91416 9.3 9.2076 9.26062 9.37541C9.22125 9.54276 9.18844 9.83807 9.18797 10.0317C9.1875 10.2248 9.21938 10.5098 9.25875 10.6645C9.29812 10.8192 9.3975 11.0826 9.47953 11.2504C9.56906 11.4332 9.75469 11.6863 9.94266 11.8832C10.1156 12.0637 10.3697 12.2798 10.5075 12.3632C10.6448 12.4471 10.9158 12.5723 11.1094 12.6417C11.4136 12.7509 11.5331 12.7678 12 12.7678C12.4669 12.7678 12.5864 12.7509 12.8906 12.6417C13.0837 12.5723 13.3552 12.4471 13.4925 12.3632C13.6303 12.2798 13.8834 12.0632 14.055 11.8823C14.227 11.7014 14.4244 11.4482 14.4938 11.3198C14.5636 11.1913 14.6639 10.9176 14.7173 10.7113C14.7703 10.5051 14.813 10.2098 14.812 10.0551C14.8116 9.90041 14.7802 9.62619 14.7422 9.44572C14.7047 9.26526 14.5889 8.94369 14.4853 8.73088C14.3667 8.48713 14.1956 8.23588 14.0231 8.05119C13.8722 7.88994 13.635 7.68463 13.4958 7.59463C13.3561 7.5051 13.1048 7.38135 12.9375 7.31994C12.7017 7.23416 12.5161 7.20557 12.1172 7.19385C11.8336 7.18588 11.5528 7.19151 11.4933 7.20697ZM8.88281 12.4167C8.72812 12.5409 8.45391 12.7982 8.27344 12.9895C8.09297 13.1803 7.86844 13.4526 7.77422 13.5942C7.68 13.7362 7.51828 14.0207 7.41469 14.227C7.31109 14.4332 7.17375 14.781 7.10953 15.0004C7.04484 15.2193 6.97781 15.5043 6.96047 15.6332C6.94219 15.7663 6.95016 15.9538 6.97969 16.0668C7.00828 16.1774 7.10953 16.3528 7.20703 16.461C7.30359 16.5679 7.46719 16.694 7.57031 16.7409C7.7475 16.8215 7.99594 16.8267 12 16.8267C16.0041 16.8267 16.2525 16.8215 16.4297 16.7409C16.5328 16.694 16.6964 16.5679 16.793 16.461C16.8895 16.3537 16.9898 16.1868 17.0152 16.0903C17.0409 15.9937 17.0625 15.8615 17.063 15.7973C17.0634 15.7326 17.0105 15.4692 16.9448 15.2113C16.8792 14.9535 16.7353 14.5528 16.6247 14.3207C16.5145 14.0887 16.3322 13.7615 16.2197 13.5942C16.1067 13.4263 15.8653 13.1343 15.683 12.9445C15.5006 12.7546 15.2302 12.5067 15.082 12.3937L14.8125 12.1879C14.4309 12.5953 14.1619 12.817 13.9688 12.9435C13.7752 13.0701 13.4433 13.2365 13.2305 13.3134C13.0177 13.3907 12.6487 13.4784 12.4102 13.5089C12.0769 13.5515 11.8814 13.5515 11.5664 13.5089C11.3409 13.4784 10.9823 13.3893 10.7695 13.3106C10.5567 13.2323 10.2562 13.0898 10.1016 12.9946C9.94687 12.899 9.67828 12.6787 9.50437 12.5043C9.33047 12.3304 9.18281 12.1888 9.17625 12.1893C9.16969 12.1903 9.0375 12.2924 8.88281 12.4167Z" fill="#A3A3A3"/>
</svg>
