<svg width="19" height="18" viewBox="0 0 19 18" fill="none" xmlns="http://www.w3.org/2000/svg">
<mask id="mask0_1077_25821" style="mask-type:alpha" maskUnits="userSpaceOnUse" x="0" y="0" width="19" height="18">
<rect x="0.333984" width="18" height="18" fill="#D9D9D9"/>
</mask>
<g mask="url(#mask0_1077_25821)">
<path d="M13.9277 10.3128V8.06284H11.6777V6.93784H13.9277V4.68784H15.0527V6.93784H17.3027V8.06284H15.0527V10.3128H13.9277ZM7.08398 8.76953C6.36211 8.76953 5.74417 8.51253 5.23017 7.99853C4.71605 7.48441 4.45898 6.86641 4.45898 6.14453C4.45898 5.42266 4.71605 4.80472 5.23017 4.29072C5.74417 3.77659 6.36211 3.51953 7.08398 3.51953C7.80586 3.51953 8.4238 3.77659 8.9378 4.29072C9.45192 4.80472 9.70898 5.42266 9.70898 6.14453C9.70898 6.86641 9.45192 7.48441 8.9378 7.99853C8.4238 8.51253 7.80586 8.76953 7.08398 8.76953ZM1.45898 14.4812V12.8137C1.45898 12.4465 1.55873 12.1063 1.75823 11.7933C1.95773 11.4803 2.22436 11.2397 2.55811 11.0715C3.29936 10.7081 4.04717 10.4355 4.80155 10.2538C5.55592 10.072 6.31673 9.98116 7.08398 9.98116C7.85123 9.98116 8.61205 10.072 9.36642 10.2538C10.1208 10.4355 10.8686 10.7081 11.6099 11.0715C11.9436 11.2397 12.2102 11.4803 12.4097 11.7933C12.6092 12.1063 12.709 12.4465 12.709 12.8137V14.4812H1.45898ZM2.58398 13.3562H11.584V12.8137C11.584 12.6618 11.54 12.5212 11.452 12.3918C11.364 12.2626 11.2445 12.1571 11.0937 12.0753C10.4474 11.7571 9.78855 11.516 9.11705 11.352C8.44542 11.1881 7.76773 11.1062 7.08398 11.1062C6.40023 11.1062 5.72255 11.1881 5.05092 11.352C4.37942 11.516 3.72055 11.7571 3.0743 12.0753C2.92342 12.1571 2.80398 12.2626 2.71598 12.3918C2.62798 12.5212 2.58398 12.6618 2.58398 12.8137V13.3562ZM7.08398 7.64453C7.49648 7.64453 7.84961 7.49766 8.14336 7.20391C8.43711 6.91016 8.58398 6.55703 8.58398 6.14453C8.58398 5.73203 8.43711 5.37891 8.14336 5.08516C7.84961 4.79141 7.49648 4.64453 7.08398 4.64453C6.67148 4.64453 6.31836 4.79141 6.02461 5.08516C5.73086 5.37891 5.58398 5.73203 5.58398 6.14453C5.58398 6.55703 5.73086 6.91016 6.02461 7.20391C6.31836 7.49766 6.67148 7.64453 7.08398 7.64453Z" fill="white"/>
</g>
</svg>
